<svg id="svg" version="1.1" xmlns="http://www.w3.org/2000/svg" xmlns:xlink="http://www.w3.org/1999/xlink" width="400" height="320.4301075268817" viewBox="0, 0, 400,320.4301075268817"><g id="svgg"><path id="path0" d="M146.983 133.893 C 146.421 134.455,147.111 134.615,150.080 134.610 C 153.157 134.606,155.901 134.028,153.205 133.953 C 152.588 133.935,150.978 133.873,149.627 133.813 C 148.276 133.754,147.086 133.790,146.983 133.893 M162.901 133.874 C 161.212 134.214,162.397 134.615,165.091 134.615 C 167.277 134.615,167.969 134.516,167.870 134.215 C 167.735 133.808,164.370 133.577,162.901 133.874 M141.026 134.936 C 141.026 135.112,141.827 135.256,142.807 135.256 C 143.914 135.256,144.514 135.135,144.391 134.936 C 144.282 134.760,143.480 134.615,142.609 134.615 C 141.738 134.615,141.026 134.760,141.026 134.936 M169.872 134.936 C 169.872 135.112,170.674 135.256,171.654 135.256 C 172.760 135.256,173.360 135.135,173.237 134.936 C 173.128 134.760,172.326 134.615,171.455 134.615 C 170.584 134.615,169.872 134.760,169.872 134.936 M136.538 135.577 C 136.538 135.753,137.268 135.897,138.160 135.897 C 139.159 135.897,139.705 135.774,139.583 135.577 C 139.474 135.401,138.745 135.256,137.962 135.256 C 137.179 135.256,136.538 135.401,136.538 135.577 M174.840 135.577 C 174.949 135.753,175.687 135.897,176.480 135.897 C 177.360 135.897,177.845 135.772,177.724 135.577 C 177.615 135.401,176.877 135.256,176.084 135.256 C 175.204 135.256,174.719 135.381,174.840 135.577 M132.447 136.271 C 132.302 136.416,131.796 136.567,131.324 136.606 C 129.979 136.717,129.924 137.500,131.260 137.500 C 132.035 137.500,132.372 137.354,132.372 137.019 C 132.372 136.645,132.799 136.538,134.295 136.538 C 135.426 136.538,136.218 136.400,136.218 136.201 C 136.218 135.806,132.850 135.868,132.447 136.271 M178.526 136.218 C 178.526 136.394,179.255 136.538,180.147 136.538 C 181.146 136.538,181.693 136.415,181.571 136.218 C 181.462 136.042,180.732 135.897,179.949 135.897 C 179.166 135.897,178.526 136.042,178.526 136.218 M181.887 136.810 C 181.559 137.137,182.161 137.500,183.032 137.500 C 183.573 137.500,183.974 137.329,183.974 137.099 C 183.974 136.728,182.212 136.484,181.887 136.810 M128.042 137.505 C 127.931 137.684,127.706 137.748,127.542 137.647 C 127.378 137.545,127.244 137.615,127.244 137.802 C 127.244 137.988,127.744 138.141,128.355 138.141 C 129.212 138.141,129.425 138.031,129.283 137.660 C 129.072 137.111,128.341 137.020,128.042 137.505 M185.256 137.639 C 185.256 138.007,185.577 138.138,186.458 138.131 C 187.688 138.121,187.503 137.824,185.978 137.357 C 185.443 137.193,185.256 137.266,185.256 137.639 M125.160 138.462 C 125.048 138.643,125.311 138.782,125.763 138.782 C 126.204 138.782,126.654 138.638,126.763 138.462 C 126.875 138.281,126.612 138.141,126.160 138.141 C 125.719 138.141,125.269 138.285,125.160 138.462 M187.981 138.462 C 188.090 138.638,188.684 138.782,189.301 138.782 C 189.967 138.782,190.342 138.652,190.224 138.462 C 190.115 138.285,189.521 138.141,188.904 138.141 C 188.238 138.141,187.863 138.271,187.981 138.462 M123.077 139.103 C 123.077 139.279,123.365 139.423,123.718 139.423 C 124.071 139.423,124.359 139.279,124.359 139.103 C 124.359 138.926,124.071 138.782,123.718 138.782 C 123.365 138.782,123.077 138.926,123.077 139.103 M191.186 139.103 C 191.070 139.290,191.403 139.423,191.987 139.423 C 192.572 139.423,192.904 139.290,192.788 139.103 C 192.680 138.926,192.319 138.782,191.987 138.782 C 191.655 138.782,191.295 138.926,191.186 139.103 M121.061 139.965 C 121.157 140.213,121.440 140.373,121.692 140.320 C 122.366 140.179,122.224 139.589,121.506 139.548 C 121.099 139.525,120.947 139.667,121.061 139.965 M193.670 139.825 C 193.831 140.306,194.934 140.360,195.089 139.894 C 195.149 139.712,194.825 139.532,194.368 139.495 C 193.826 139.450,193.584 139.565,193.670 139.825 M118.803 140.278 C 118.368 140.714,118.613 141.026,119.391 141.026 C 119.890 141.026,120.192 140.844,120.192 140.545 C 120.192 140.064,119.207 139.875,118.803 140.278 M195.833 140.705 C 195.833 140.881,196.194 141.026,196.635 141.026 C 197.075 141.026,197.436 140.881,197.436 140.705 C 197.436 140.529,197.075 140.385,196.635 140.385 C 196.194 140.385,195.833 140.529,195.833 140.705 M116.667 141.346 C 116.667 141.522,116.374 141.667,116.016 141.667 C 115.657 141.667,115.288 141.867,115.194 142.112 C 115.094 142.373,114.761 142.489,114.392 142.392 C 114.039 142.300,113.492 142.471,113.151 142.780 C 112.815 143.083,112.402 143.247,112.233 143.142 C 112.064 143.038,111.843 143.168,111.742 143.431 C 111.641 143.695,111.274 143.910,110.926 143.910 C 110.579 143.910,110.205 144.054,110.096 144.231 C 109.987 144.407,109.618 144.551,109.276 144.551 C 108.934 144.551,108.654 144.696,108.654 144.872 C 108.654 145.048,108.460 145.192,108.222 145.192 C 107.580 145.192,105.769 146.156,105.769 146.498 C 105.769 146.661,105.513 146.795,105.199 146.795 C 104.885 146.795,104.421 147.083,104.167 147.436 C 103.913 147.788,103.376 148.077,102.974 148.077 C 102.572 148.077,102.244 148.221,102.244 148.397 C 102.244 148.574,101.966 148.718,101.626 148.718 C 101.286 148.718,100.724 149.079,100.378 149.519 C 100.031 149.960,99.516 150.321,99.233 150.321 C 98.950 150.321,98.718 150.430,98.718 150.563 C 98.718 150.696,98.249 151.012,97.676 151.264 C 96.495 151.785,95.833 152.358,95.833 152.862 C 95.833 153.051,95.507 153.205,95.108 153.205 C 94.709 153.205,94.113 153.565,93.781 154.006 C 93.450 154.447,92.998 154.808,92.776 154.808 C 92.554 154.808,91.601 155.564,90.657 156.489 C 89.714 157.414,88.830 158.134,88.693 158.089 C 88.556 158.044,88.360 158.225,88.258 158.491 C 88.156 158.757,87.932 158.974,87.760 158.974 C 87.587 158.974,86.967 159.468,86.381 160.072 C 85.794 160.676,85.230 161.084,85.125 160.980 C 85.021 160.876,84.936 160.965,84.936 161.179 C 84.936 161.655,83.490 163.141,83.027 163.141 C 82.843 163.141,82.692 163.264,82.692 163.414 C 82.692 163.564,82.260 164.140,81.731 164.693 C 80.563 165.915,80.452 167.276,81.467 167.910 C 82.069 168.286,82.216 168.274,82.544 167.827 C 82.753 167.541,83.151 167.308,83.430 167.308 C 83.709 167.308,84.026 167.163,84.135 166.987 C 84.246 166.806,83.987 166.667,83.539 166.667 C 83.103 166.667,82.689 166.837,82.620 167.045 C 82.476 167.476,81.410 167.172,81.410 166.700 C 81.410 166.216,90.902 157.062,91.412 157.055 C 91.536 157.053,91.970 156.727,92.375 156.330 C 92.781 155.933,93.689 155.184,94.393 154.664 C 95.097 154.145,95.745 153.640,95.833 153.542 C 95.921 153.444,96.426 153.148,96.955 152.884 C 97.484 152.620,98.078 152.260,98.275 152.083 C 99.702 150.805,100.381 150.321,100.743 150.321 C 100.973 150.321,101.449 150.068,101.800 149.760 C 102.668 148.998,103.464 148.503,104.888 147.843 C 105.549 147.536,106.090 147.174,106.090 147.040 C 106.090 146.905,106.270 146.796,106.490 146.798 C 106.992 146.803,111.660 144.477,111.806 144.151 C 111.864 144.018,112.189 143.910,112.527 143.910 C 112.865 143.910,113.141 143.766,113.141 143.590 C 113.141 143.413,113.484 143.269,113.903 143.269 C 114.322 143.269,114.845 143.053,115.064 142.788 C 115.284 142.524,115.734 142.308,116.065 142.308 C 116.396 142.308,116.667 142.163,116.667 141.987 C 116.667 141.811,117.027 141.667,117.468 141.667 C 117.909 141.667,118.269 141.522,118.269 141.346 C 118.269 141.170,117.909 141.026,117.468 141.026 C 117.027 141.026,116.667 141.170,116.667 141.346 M197.756 141.346 C 197.756 141.522,198.198 141.667,198.737 141.667 C 199.309 141.667,199.635 141.533,199.519 141.346 C 199.410 141.170,198.969 141.026,198.539 141.026 C 198.108 141.026,197.756 141.170,197.756 141.346 M200.160 141.987 C 200.048 142.169,200.317 142.308,200.782 142.308 C 201.233 142.308,201.603 142.163,201.603 141.987 C 201.603 141.811,201.323 141.667,200.980 141.667 C 200.638 141.667,200.269 141.811,200.160 141.987 M202.244 142.788 C 202.244 143.088,202.546 143.269,203.045 143.269 C 203.486 143.269,203.846 143.413,203.846 143.590 C 203.846 143.766,204.135 143.910,204.487 143.910 C 204.840 143.910,205.128 143.713,205.128 143.471 C 205.128 143.218,204.823 143.048,204.407 143.071 C 203.986 143.093,203.719 142.942,203.766 142.708 C 203.813 142.473,203.515 142.308,203.045 142.308 C 202.546 142.308,202.244 142.489,202.244 142.788 M206.090 144.251 C 206.090 144.616,206.951 144.653,207.170 144.297 C 207.257 144.158,207.049 144.022,206.709 143.997 C 206.368 143.971,206.090 144.085,206.090 144.251 M208.013 144.872 C 208.013 145.048,208.293 145.192,208.635 145.192 C 208.977 145.192,209.346 145.048,209.455 144.872 C 209.567 144.690,209.298 144.551,208.833 144.551 C 208.382 144.551,208.013 144.696,208.013 144.872 M212.291 146.326 C 211.744 146.740,211.779 146.775,212.740 146.785 C 213.800 146.795,214.148 146.363,213.332 146.050 C 213.085 145.955,212.616 146.079,212.291 146.326 M214.103 147.115 C 214.103 147.292,214.391 147.436,214.744 147.436 C 215.096 147.436,215.385 147.292,215.385 147.115 C 215.385 146.939,215.096 146.795,214.744 146.795 C 214.391 146.795,214.103 146.939,214.103 147.115 M216.026 147.756 C 216.026 147.933,216.395 148.077,216.846 148.077 C 217.311 148.077,217.580 147.938,217.468 147.756 C 217.359 147.580,216.990 147.436,216.648 147.436 C 216.306 147.436,216.026 147.580,216.026 147.756 M316.667 148.328 C 316.226 148.797,315.901 149.293,315.946 149.430 C 315.990 149.567,315.880 149.679,315.702 149.679 C 315.524 149.679,314.926 150.112,314.373 150.641 C 313.819 151.170,313.182 151.603,312.956 151.603 C 312.731 151.603,312.263 151.963,311.916 152.404 C 311.570 152.845,311.054 153.205,310.771 153.205 C 310.488 153.205,310.256 153.349,310.256 153.526 C 310.256 153.702,310.040 153.846,309.776 153.846 C 309.511 153.846,309.295 153.990,309.295 154.167 C 309.295 154.343,309.086 154.487,308.830 154.487 C 308.574 154.487,308.218 154.740,308.038 155.048 C 307.859 155.357,307.707 155.493,307.702 155.350 C 307.690 155.021,305.769 156.142,305.769 156.479 C 305.769 156.618,305.467 156.731,305.098 156.731 C 304.728 156.731,303.980 157.048,303.434 157.437 C 302.889 157.825,302.105 158.115,301.691 158.080 C 301.274 158.046,300.858 158.231,300.756 158.496 C 300.652 158.768,300.171 158.974,299.645 158.974 C 299.135 158.974,298.718 159.119,298.718 159.295 C 298.718 159.471,298.213 159.615,297.596 159.615 C 296.979 159.615,296.474 159.760,296.474 159.936 C 296.474 160.112,296.050 160.256,295.532 160.256 C 295.013 160.256,294.500 160.401,294.391 160.577 C 294.282 160.753,293.733 160.902,293.170 160.908 C 292.608 160.913,291.867 161.130,291.525 161.388 C 291.162 161.663,290.204 161.859,289.220 161.859 C 288.295 161.859,287.449 162.003,287.340 162.179 C 287.231 162.356,285.953 162.500,284.500 162.500 C 283.006 162.500,281.706 162.653,281.506 162.853 C 281.277 163.082,279.512 163.189,276.474 163.159 C 273.823 163.132,271.795 163.239,271.795 163.405 C 271.795 164.113,278.473 164.376,280.451 163.746 C 281.067 163.549,282.861 163.357,284.438 163.317 C 286.274 163.271,287.350 163.111,287.429 162.873 C 287.503 162.651,288.255 162.500,289.290 162.500 C 290.244 162.500,291.026 162.356,291.026 162.179 C 291.026 162.003,291.747 161.859,292.628 161.859 C 293.510 161.859,294.231 161.715,294.231 161.538 C 294.231 161.362,294.627 161.216,295.112 161.213 C 296.240 161.207,298.987 160.300,301.037 159.257 C 301.343 159.102,301.884 158.974,302.239 158.974 C 302.594 158.974,302.885 158.830,302.885 158.654 C 302.885 158.478,303.245 158.333,303.686 158.333 C 304.127 158.333,304.489 158.225,304.490 158.093 C 304.492 157.961,305.141 157.568,305.933 157.220 C 306.724 156.872,307.372 156.475,307.372 156.338 C 307.372 156.202,307.588 156.090,307.853 156.090 C 308.117 156.090,308.333 155.946,308.333 155.769 C 308.333 155.593,308.488 155.449,308.678 155.449 C 308.867 155.449,310.026 154.800,311.252 154.006 C 312.478 153.213,313.570 152.564,313.678 152.564 C 313.864 152.564,314.329 152.147,317.357 149.272 C 318.057 148.607,318.765 148.147,318.930 148.249 C 319.331 148.497,319.316 149.359,318.910 149.359 C 318.734 149.359,318.590 149.553,318.590 149.791 C 318.590 150.433,317.626 152.244,317.284 152.244 C 317.121 152.244,316.987 152.532,316.987 152.885 C 316.987 153.237,316.843 153.526,316.667 153.526 C 316.490 153.526,316.346 153.742,316.346 154.006 C 316.346 154.271,316.231 154.487,316.090 154.487 C 315.948 154.487,315.423 155.136,314.921 155.929 C 314.420 156.723,313.886 157.372,313.736 157.372 C 313.585 157.372,313.462 157.600,313.462 157.879 C 313.462 158.158,312.968 158.866,312.364 159.453 C 311.760 160.039,311.352 160.604,311.456 160.708 C 311.560 160.812,311.471 160.897,311.257 160.897 C 311.044 160.897,310.070 161.691,309.093 162.660 C 308.115 163.630,307.220 164.427,307.103 164.432 C 306.840 164.444,304.808 166.276,304.808 166.502 C 304.808 167.720,313.430 159.986,314.684 157.643 C 314.916 157.210,315.495 156.431,315.970 155.912 C 317.028 154.758,317.949 153.347,317.949 152.882 C 317.949 152.693,318.237 152.228,318.590 151.849 C 318.942 151.471,319.231 150.900,319.231 150.581 C 319.231 150.261,319.359 150.000,319.517 150.000 C 319.904 150.000,320.238 148.570,319.997 147.942 C 319.669 147.086,317.610 147.324,316.667 148.328 M217.949 148.397 C 217.949 148.574,218.165 148.718,218.429 148.718 C 218.694 148.718,218.910 148.574,218.910 148.397 C 218.910 148.221,218.694 148.077,218.429 148.077 C 218.165 148.077,217.949 148.221,217.949 148.397 M219.952 148.930 C 219.324 149.184,219.483 149.679,220.192 149.679 C 220.548 149.679,220.833 149.466,220.833 149.199 C 220.833 148.705,220.649 148.649,219.952 148.930 M221.154 149.818 C 221.154 150.170,221.462 150.321,222.179 150.321 C 223.275 150.321,223.115 149.908,221.875 149.534 C 221.341 149.372,221.154 149.446,221.154 149.818 M223.397 150.641 C 223.397 150.817,223.686 150.962,224.038 150.962 C 224.391 150.962,224.679 150.817,224.679 150.641 C 224.679 150.465,224.391 150.321,224.038 150.321 C 223.686 150.321,223.397 150.465,223.397 150.641 M225.321 151.282 C 225.321 151.458,225.690 151.603,226.141 151.603 C 226.606 151.603,226.875 151.464,226.763 151.282 C 226.654 151.106,226.285 150.962,225.943 150.962 C 225.600 150.962,225.321 151.106,225.321 151.282 M227.083 152.244 C 227.192 152.420,227.489 152.564,227.743 152.564 C 227.997 152.564,228.205 152.420,228.205 152.244 C 228.205 152.067,227.908 151.923,227.545 151.923 C 227.182 151.923,226.974 152.067,227.083 152.244 M131.090 152.564 C 131.090 152.751,130.014 152.885,128.505 152.885 C 127.083 152.885,125.640 153.034,125.298 153.217 C 124.956 153.400,123.735 153.638,122.584 153.745 C 121.434 153.853,120.416 154.064,120.323 154.214 C 120.230 154.364,119.442 154.487,118.571 154.487 C 117.700 154.487,116.987 154.631,116.987 154.808 C 116.987 154.984,116.338 155.128,115.545 155.128 C 114.177 155.128,113.625 155.517,114.511 155.857 C 115.148 156.102,117.378 155.827,117.746 155.459 C 117.928 155.277,118.689 155.128,119.436 155.128 C 120.184 155.128,120.885 154.984,120.994 154.808 C 121.103 154.631,122.049 154.487,123.096 154.487 C 124.405 154.487,125.000 154.362,125.000 154.087 C 125.000 153.800,125.667 153.694,127.343 153.716 C 128.631 153.732,130.038 153.609,130.468 153.442 C 130.898 153.275,133.825 153.095,136.973 153.042 C 140.566 152.982,142.826 152.815,143.046 152.595 C 143.301 152.340,141.703 152.244,137.244 152.244 C 133.355 152.244,131.090 152.362,131.090 152.564 M146.054 152.592 C 146.582 153.120,157.435 153.169,157.611 152.644 C 157.716 152.333,156.400 152.244,151.725 152.244 C 147.388 152.244,145.803 152.341,146.054 152.592 M229.060 152.457 C 228.624 152.893,228.869 153.205,229.647 153.205 C 230.543 153.205,230.722 152.738,229.942 152.438 C 229.314 152.197,229.320 152.197,229.060 152.457 M158.333 153.221 C 158.333 153.623,159.100 153.779,161.015 153.767 C 162.028 153.760,163.022 153.919,163.223 154.121 C 163.674 154.571,167.308 154.612,167.308 154.167 C 167.308 153.990,166.478 153.842,165.465 153.836 C 164.330 153.830,163.375 153.639,162.981 153.341 C 162.320 152.842,158.333 152.739,158.333 153.221 M231.090 153.526 C 231.090 153.702,231.459 153.846,231.910 153.846 C 232.375 153.846,232.644 153.707,232.532 153.526 C 232.423 153.349,232.054 153.205,231.712 153.205 C 231.370 153.205,231.090 153.349,231.090 153.526 M233.514 154.133 C 233.417 154.291,233.538 154.497,233.785 154.592 C 234.255 154.772,234.615 154.564,234.615 154.113 C 234.615 153.755,233.738 153.771,233.514 154.133 M167.628 154.808 C 167.628 154.984,168.277 155.128,169.071 155.128 C 169.864 155.128,170.513 154.984,170.513 154.808 C 170.513 154.631,169.864 154.487,169.071 154.487 C 168.277 154.487,167.628 154.631,167.628 154.808 M235.256 154.970 C 235.256 155.271,235.564 155.449,236.084 155.449 C 237.081 155.449,236.980 154.754,235.961 154.599 C 235.502 154.529,235.256 154.658,235.256 154.970 M138.462 155.345 C 137.316 155.421,136.241 155.619,136.074 155.786 C 135.906 155.953,134.004 156.090,131.846 156.090 C 129.576 156.090,127.839 156.225,127.724 156.410 C 127.615 156.587,126.606 156.731,125.481 156.731 C 124.356 156.731,123.346 156.875,123.237 157.051 C 123.128 157.228,122.263 157.372,121.314 157.372 C 120.365 157.372,119.500 157.516,119.391 157.692 C 119.282 157.869,118.713 158.013,118.127 158.013 C 117.348 158.013,116.922 158.225,116.543 158.803 C 115.962 159.690,115.879 160.064,116.324 159.789 C 116.488 159.688,116.713 159.752,116.824 159.931 C 116.955 160.143,121.650 160.256,130.288 160.256 C 138.785 160.256,143.623 160.372,143.750 160.577 C 143.859 160.753,144.733 160.897,145.692 160.897 C 146.651 160.897,147.436 161.042,147.436 161.218 C 147.436 161.394,148.167 161.538,149.061 161.538 C 150.079 161.538,150.867 161.718,151.168 162.019 C 151.476 162.327,152.267 162.500,153.369 162.500 C 154.316 162.500,155.180 162.644,155.288 162.821 C 155.397 162.997,155.911 163.141,156.429 163.141 C 156.948 163.141,157.372 163.285,157.372 163.462 C 157.372 163.638,158.021 163.782,158.814 163.782 C 159.607 163.782,160.256 163.926,160.256 164.103 C 160.256 164.279,160.699 164.423,161.241 164.423 C 161.782 164.423,162.442 164.639,162.706 164.904 C 162.970 165.168,163.681 165.385,164.286 165.385 C 164.890 165.385,165.385 165.529,165.385 165.705 C 165.385 165.881,165.809 166.026,166.327 166.026 C 166.846 166.026,167.359 166.170,167.468 166.346 C 167.577 166.522,168.226 166.667,168.910 166.667 C 169.595 166.667,170.244 166.811,170.353 166.987 C 170.462 167.163,170.959 167.308,171.459 167.308 C 171.999 167.308,172.448 167.517,172.566 167.825 C 172.702 168.181,173.022 168.293,173.587 168.185 C 174.108 168.086,174.472 168.190,174.579 168.469 C 174.672 168.712,175.157 168.910,175.656 168.910 C 176.156 168.910,176.654 169.054,176.763 169.231 C 176.872 169.407,177.385 169.551,177.904 169.551 C 178.422 169.551,178.846 169.696,178.846 169.872 C 178.846 170.048,179.195 170.192,179.621 170.192 C 180.047 170.192,180.448 170.350,180.512 170.542 C 180.576 170.735,181.019 170.915,181.496 170.943 C 181.974 170.971,182.434 171.174,182.518 171.394 C 182.603 171.615,183.109 171.795,183.644 171.795 C 184.178 171.795,184.615 171.939,184.615 172.115 C 184.615 172.292,185.120 172.436,185.737 172.436 C 186.354 172.436,186.859 172.580,186.859 172.756 C 186.859 172.933,187.220 173.077,187.660 173.077 C 188.101 173.077,188.462 173.203,188.462 173.358 C 188.462 173.512,189.399 173.907,190.545 174.235 C 191.691 174.563,192.628 174.942,192.628 175.076 C 192.628 175.211,193.061 175.321,193.590 175.321 C 194.119 175.321,194.551 175.465,194.551 175.641 C 194.551 175.817,195.056 175.962,195.673 175.962 C 196.290 175.962,196.795 176.106,196.795 176.282 C 196.795 176.458,197.284 176.603,197.882 176.603 C 198.553 176.603,199.041 176.787,199.154 177.083 C 199.256 177.348,199.623 177.564,199.971 177.564 C 200.319 177.564,200.692 177.708,200.801 177.885 C 200.910 178.061,201.343 178.205,201.763 178.205 C 202.183 178.205,202.615 178.349,202.724 178.526 C 202.833 178.702,203.347 178.846,203.865 178.846 C 204.384 178.846,204.808 178.990,204.808 179.167 C 204.808 179.343,205.441 179.487,206.216 179.487 C 207.172 179.487,207.683 179.642,207.808 179.968 C 207.910 180.232,208.349 180.449,208.785 180.449 C 209.221 180.449,209.667 180.593,209.776 180.769 C 209.885 180.946,210.542 181.090,211.237 181.090 C 211.932 181.090,212.500 181.234,212.500 181.410 C 212.500 181.587,213.005 181.731,213.622 181.731 C 214.239 181.731,214.744 181.875,214.744 182.051 C 214.744 182.228,215.381 182.372,216.159 182.372 C 216.938 182.372,217.626 182.525,217.689 182.713 C 217.751 182.901,218.412 183.136,219.158 183.236 C 219.903 183.336,220.513 183.543,220.513 183.696 C 220.513 183.849,221.306 183.974,222.276 183.974 C 223.245 183.974,224.038 184.119,224.038 184.295 C 224.038 184.471,224.751 184.615,225.622 184.615 C 226.493 184.615,227.295 184.760,227.404 184.936 C 227.513 185.112,228.735 185.256,230.120 185.256 C 231.652 185.256,232.684 185.393,232.755 185.606 C 232.819 185.798,233.661 186.014,234.625 186.086 C 235.589 186.158,236.883 186.370,237.500 186.557 C 240.104 187.346,263.288 186.520,264.202 185.606 C 264.394 185.414,264.998 185.256,265.545 185.256 C 267.168 185.256,268.264 184.585,268.267 183.588 C 268.270 182.476,267.446 182.305,261.378 182.160 C 253.862 181.981,249.679 181.706,249.679 181.390 C 249.679 181.225,248.598 181.090,247.276 181.090 C 245.887 181.090,244.872 180.954,244.872 180.769 C 244.872 180.592,244.026 180.449,242.975 180.449 C 241.810 180.449,241.031 180.304,240.954 180.073 C 240.884 179.862,239.958 179.634,238.844 179.554 C 237.752 179.475,236.859 179.283,236.859 179.128 C 236.859 178.973,236.354 178.846,235.737 178.846 C 235.120 178.846,234.615 178.702,234.615 178.526 C 234.615 178.349,233.822 178.205,232.853 178.205 C 231.883 178.205,231.090 178.061,231.090 177.885 C 231.090 177.708,230.585 177.564,229.968 177.564 C 229.351 177.564,228.846 177.436,228.846 177.280 C 228.846 177.124,228.197 176.899,227.404 176.780 C 226.611 176.661,225.962 176.428,225.962 176.262 C 225.962 176.097,225.529 175.962,225.000 175.962 C 224.471 175.962,224.038 175.817,224.038 175.641 C 224.038 175.465,223.542 175.321,222.936 175.321 C 222.329 175.321,221.744 175.176,221.635 175.000 C 221.526 174.824,220.868 174.679,220.173 174.679 C 219.479 174.679,218.910 174.535,218.910 174.359 C 218.910 174.183,218.611 174.038,218.246 174.038 C 217.881 174.038,217.366 173.822,217.102 173.558 C 216.837 173.293,216.279 173.077,215.861 173.077 C 215.444 173.077,215.013 172.933,214.904 172.756 C 214.795 172.580,214.209 172.436,213.603 172.436 C 212.996 172.436,212.500 172.292,212.500 172.115 C 212.500 171.939,212.220 171.795,211.878 171.795 C 211.536 171.795,211.167 171.651,211.058 171.474 C 210.949 171.298,210.453 171.154,209.956 171.154 C 209.459 171.154,208.873 170.938,208.654 170.673 C 208.434 170.409,207.920 170.192,207.512 170.192 C 207.103 170.192,206.679 170.048,206.571 169.872 C 206.462 169.696,205.948 169.551,205.430 169.551 C 204.911 169.551,204.487 169.407,204.487 169.231 C 204.487 169.054,204.135 168.910,203.705 168.910 C 203.275 168.910,202.833 168.766,202.724 168.590 C 202.615 168.413,202.186 168.269,201.771 168.269 C 201.355 168.269,200.966 168.122,200.906 167.942 C 200.846 167.761,200.365 167.537,199.837 167.442 C 199.310 167.347,198.830 167.134,198.771 166.968 C 198.713 166.802,198.180 166.667,197.588 166.667 C 196.996 166.667,196.423 166.522,196.314 166.346 C 196.205 166.170,195.764 166.026,195.334 166.026 C 194.903 166.026,194.551 165.881,194.551 165.705 C 194.551 165.529,194.108 165.385,193.567 165.385 C 193.025 165.385,192.355 165.157,192.077 164.879 C 191.799 164.601,191.336 164.435,191.049 164.510 C 190.761 164.585,190.344 164.452,190.122 164.214 C 189.900 163.977,189.363 163.782,188.930 163.782 C 188.496 163.782,188.141 163.638,188.141 163.462 C 188.141 163.285,187.717 163.141,187.198 163.141 C 186.680 163.141,186.167 162.997,186.058 162.821 C 185.949 162.644,185.447 162.500,184.944 162.500 C 184.440 162.500,183.980 162.392,183.921 162.260 C 183.777 161.935,180.687 160.897,179.864 160.897 C 179.501 160.897,179.115 160.753,179.006 160.577 C 178.897 160.401,178.312 160.256,177.705 160.256 C 177.099 160.256,176.603 160.112,176.603 159.936 C 176.603 159.760,175.890 159.615,175.019 159.615 C 174.148 159.615,173.346 159.471,173.237 159.295 C 173.128 159.119,172.414 158.974,171.650 158.974 C 170.711 158.974,170.201 158.819,170.076 158.494 C 169.955 158.178,169.455 158.013,168.619 158.013 C 167.918 158.013,167.256 157.869,167.147 157.692 C 167.038 157.516,166.245 157.372,165.385 157.372 C 164.524 157.372,163.731 157.228,163.622 157.051 C 163.513 156.875,162.431 156.731,161.218 156.731 C 160.005 156.731,158.923 156.587,158.814 156.410 C 158.703 156.230,157.176 156.090,155.334 156.090 C 153.359 156.090,151.910 155.948,151.696 155.734 C 151.321 155.359,142.277 155.093,138.462 155.345 M171.154 155.449 C 171.154 155.625,171.334 155.780,171.554 155.794 C 171.775 155.807,172.201 155.866,172.502 155.924 C 172.803 155.982,173.217 155.826,173.423 155.579 C 173.733 155.204,173.574 155.128,172.475 155.128 C 171.748 155.128,171.154 155.272,171.154 155.449 M237.393 155.342 C 236.951 155.784,237.207 156.090,238.020 156.090 C 238.731 156.090,238.799 156.016,238.462 155.609 C 238.027 155.086,237.725 155.010,237.393 155.342 M111.218 156.250 C 110.984 156.532,110.491 156.740,110.124 156.711 C 108.978 156.623,108.609 156.719,108.814 157.051 C 109.070 157.466,110.994 157.467,111.408 157.053 C 111.584 156.878,112.119 156.702,112.598 156.662 C 113.076 156.623,113.419 156.442,113.360 156.260 C 113.179 155.708,111.674 155.701,111.218 156.250 M174.437 155.982 C 173.769 156.252,174.334 156.731,175.321 156.731 C 175.829 156.731,176.333 156.875,176.442 157.051 C 176.551 157.228,177.065 157.372,177.583 157.372 C 178.101 157.372,178.526 157.228,178.526 157.051 C 178.526 156.875,178.036 156.731,177.438 156.731 C 176.767 156.731,176.280 156.547,176.166 156.250 C 175.985 155.778,175.233 155.661,174.437 155.982 M239.103 156.410 C 239.103 156.587,239.391 156.731,239.744 156.731 C 240.096 156.731,240.385 156.587,240.385 156.410 C 240.385 156.234,240.096 156.090,239.744 156.090 C 239.391 156.090,239.103 156.234,239.103 156.410 M241.186 157.051 C 241.295 157.228,241.817 157.372,242.346 157.372 C 242.905 157.372,243.224 157.238,243.109 157.051 C 243.000 156.875,242.478 156.731,241.949 156.731 C 241.390 156.731,241.071 156.865,241.186 157.051 M106.410 157.692 C 106.410 157.869,105.905 158.013,105.288 158.013 C 104.671 158.013,104.167 158.157,104.167 158.333 C 104.167 158.510,103.662 158.654,103.045 158.654 C 102.428 158.654,101.923 158.798,101.923 158.974 C 101.923 159.151,101.671 159.295,101.362 159.295 C 100.735 159.295,97.912 160.315,97.557 160.669 C 97.432 160.795,96.920 160.897,96.421 160.897 C 95.921 160.897,95.513 161.042,95.513 161.218 C 95.513 161.394,95.152 161.538,94.712 161.538 C 94.271 161.538,93.910 161.665,93.910 161.819 C 93.910 161.973,93.478 162.186,92.949 162.292 C 92.420 162.397,91.987 162.632,91.987 162.813 C 91.987 163.323,93.907 163.203,94.107 162.680 C 94.204 162.427,94.487 162.298,94.735 162.393 C 94.984 162.489,95.276 162.335,95.384 162.052 C 95.512 161.721,95.967 161.538,96.669 161.538 C 97.267 161.538,97.756 161.394,97.756 161.218 C 97.756 161.042,98.261 160.897,98.878 160.897 C 99.495 160.897,100.000 160.753,100.000 160.577 C 100.000 160.401,100.433 160.256,100.962 160.256 C 101.490 160.256,101.923 160.112,101.923 159.936 C 101.923 159.760,102.273 159.615,102.701 159.615 C 103.130 159.615,103.670 159.431,103.903 159.205 C 104.136 158.979,104.760 158.761,105.288 158.721 C 105.817 158.681,106.298 158.505,106.357 158.331 C 106.416 158.156,106.956 158.013,107.559 158.013 C 108.161 158.013,108.654 157.869,108.654 157.692 C 108.654 157.516,108.149 157.372,107.532 157.372 C 106.915 157.372,106.410 157.516,106.410 157.692 M179.006 157.692 C 179.115 157.869,179.484 158.013,179.827 158.013 C 180.169 158.013,180.449 157.869,180.449 157.692 C 180.449 157.516,180.080 157.372,179.629 157.372 C 179.163 157.372,178.894 157.511,179.006 157.692 M243.440 157.675 C 243.154 158.138,244.847 158.486,245.280 158.053 C 245.479 157.855,245.576 157.680,245.497 157.666 C 244.084 157.408,243.604 157.410,243.440 157.675 M181.558 158.508 C 182.244 159.027,182.742 158.986,182.939 158.393 C 183.021 158.149,182.683 158.016,181.998 158.023 C 180.985 158.033,180.962 158.058,181.558 158.508 M245.913 158.246 C 245.085 158.537,245.557 158.974,246.699 158.974 C 247.615 158.974,247.798 158.888,247.503 158.593 C 247.073 158.163,246.505 158.039,245.913 158.246 M184.053 159.054 C 184.256 159.671,185.577 159.760,185.577 159.157 C 185.577 158.830,185.288 158.654,184.749 158.654 C 184.230 158.654,183.970 158.803,184.053 159.054 M247.917 159.295 C 247.797 159.488,248.234 159.615,249.020 159.615 C 249.735 159.615,250.321 159.471,250.321 159.295 C 250.321 159.119,249.824 158.974,249.218 158.974 C 248.611 158.974,248.026 159.119,247.917 159.295 M186.120 159.500 C 185.757 159.863,186.234 160.256,187.038 160.256 C 187.918 160.256,188.087 159.786,187.314 159.489 C 186.667 159.241,186.376 159.244,186.120 159.500 M250.817 159.908 C 251.363 160.433,253.688 160.458,253.365 159.936 C 253.256 159.760,252.570 159.615,251.840 159.615 C 251.030 159.615,250.631 159.730,250.817 159.908 M188.462 160.577 C 189.092 160.984,190.064 160.984,190.064 160.577 C 190.064 160.401,189.595 160.259,189.022 160.261 C 188.232 160.265,188.097 160.341,188.462 160.577 M253.846 160.625 C 253.846 160.962,255.969 161.330,256.395 161.067 C 256.585 160.950,256.655 160.714,256.550 160.543 C 256.328 160.185,253.846 160.260,253.846 160.625 M190.385 161.218 C 190.385 161.394,190.745 161.538,191.186 161.538 C 191.627 161.538,191.987 161.394,191.987 161.218 C 191.987 161.042,191.627 160.897,191.186 160.897 C 190.745 160.897,190.385 161.042,190.385 161.218 M257.051 161.452 C 257.051 161.760,257.548 161.859,258.877 161.816 C 260.026 161.778,260.749 161.894,260.827 162.128 C 260.978 162.582,263.782 162.631,263.782 162.179 C 263.782 162.003,263.169 161.858,262.420 161.857 C 261.671 161.856,260.639 161.637,260.127 161.370 C 259.015 160.790,257.051 160.842,257.051 161.452 M192.628 162.019 C 192.628 162.318,192.931 162.500,193.429 162.500 C 193.928 162.500,194.231 162.318,194.231 162.019 C 194.231 161.720,193.928 161.538,193.429 161.538 C 192.931 161.538,192.628 161.720,192.628 162.019 M194.712 162.821 C 194.820 162.997,195.190 163.141,195.532 163.141 C 195.874 163.141,196.154 162.997,196.154 162.821 C 196.154 162.644,195.785 162.500,195.334 162.500 C 194.868 162.500,194.599 162.639,194.712 162.821 M264.904 162.821 C 265.013 162.997,266.400 163.141,267.987 163.141 C 269.828 163.141,270.800 163.025,270.673 162.821 C 270.564 162.644,269.177 162.500,267.590 162.500 C 265.749 162.500,264.777 162.616,264.904 162.821 M90.224 163.394 C 89.519 163.673,88.894 164.018,88.835 164.162 C 88.777 164.306,88.380 164.423,87.954 164.423 C 87.528 164.423,87.179 164.567,87.179 164.744 C 87.179 164.920,86.967 165.064,86.706 165.064 C 85.843 165.064,84.107 166.294,84.668 166.509 C 85.185 166.708,88.862 165.192,89.049 164.703 C 89.108 164.549,89.505 164.423,89.931 164.423 C 90.357 164.423,90.705 164.279,90.705 164.103 C 90.705 163.926,90.994 163.782,91.346 163.782 C 91.699 163.782,91.987 163.646,91.987 163.480 C 91.987 162.912,91.505 162.888,90.224 163.394 M196.955 163.462 C 197.064 163.638,197.433 163.782,197.775 163.782 C 198.117 163.782,198.397 163.638,198.397 163.462 C 198.397 163.285,198.028 163.141,197.577 163.141 C 197.112 163.141,196.843 163.280,196.955 163.462 M199.038 164.103 C 199.038 164.279,199.246 164.423,199.500 164.423 C 199.754 164.423,200.051 164.279,200.160 164.103 C 200.269 163.926,200.061 163.782,199.698 163.782 C 199.335 163.782,199.038 163.926,199.038 164.103 M201.171 164.917 C 201.381 165.464,201.972 165.397,202.170 164.804 C 202.241 164.592,202.005 164.423,201.639 164.423 C 201.178 164.423,201.038 164.571,201.171 164.917 M202.711 165.406 C 202.394 165.919,202.749 166.112,203.544 165.860 C 204.097 165.684,204.155 165.574,203.808 165.354 C 203.221 164.982,202.966 164.994,202.711 165.406 M204.808 166.346 C 204.808 166.522,205.096 166.667,205.449 166.667 C 205.801 166.667,206.090 166.522,206.090 166.346 C 206.090 166.170,205.801 166.026,205.449 166.026 C 205.096 166.026,204.808 166.170,204.808 166.346 M206.731 166.987 C 206.731 167.163,207.091 167.308,207.532 167.308 C 207.973 167.308,208.333 167.163,208.333 166.987 C 208.333 166.811,207.973 166.667,207.532 166.667 C 207.091 166.667,206.731 166.811,206.731 166.987 M303.279 167.308 C 302.901 167.660,302.441 167.949,302.257 167.949 C 302.073 167.949,301.923 168.059,301.923 168.193 C 301.923 168.328,301.649 168.580,301.313 168.754 C 300.978 168.928,300.184 169.339,299.550 169.668 C 298.916 169.997,298.397 170.393,298.397 170.549 C 298.397 170.706,298.178 170.833,297.910 170.833 C 297.642 170.833,296.852 171.194,296.154 171.635 C 295.456 172.075,294.665 172.436,294.397 172.436 C 294.129 172.436,293.910 172.580,293.910 172.756 C 293.910 172.933,293.622 173.077,293.269 173.077 C 292.917 173.077,292.628 173.221,292.628 173.397 C 292.628 173.574,292.338 173.718,291.983 173.718 C 291.628 173.718,291.087 173.853,290.781 174.018 C 289.177 174.882,287.948 175.321,287.130 175.321 C 286.628 175.321,286.218 175.465,286.218 175.641 C 286.218 175.817,285.705 175.962,285.077 175.962 C 284.398 175.962,284.017 176.091,284.135 176.282 C 284.244 176.458,284.757 176.603,285.275 176.603 C 285.794 176.603,286.218 176.458,286.218 176.282 C 286.218 176.106,286.707 175.962,287.305 175.962 C 287.933 175.962,288.465 175.775,288.562 175.520 C 288.672 175.234,289.034 175.137,289.592 175.244 C 290.131 175.347,290.556 175.242,290.729 174.964 C 290.880 174.719,291.189 174.516,291.416 174.512 C 292.095 174.501,293.910 173.661,293.910 173.359 C 293.910 173.204,294.271 173.077,294.712 173.077 C 295.152 173.077,295.513 172.933,295.513 172.756 C 295.513 172.580,295.873 172.436,296.314 172.436 C 296.755 172.436,297.115 172.292,297.115 172.115 C 297.115 171.939,297.404 171.795,297.756 171.795 C 298.109 171.795,298.397 171.660,298.397 171.496 C 298.397 171.332,298.722 171.095,299.119 170.969 C 299.515 170.844,300.073 170.474,300.358 170.146 C 300.643 169.819,301.076 169.551,301.320 169.551 C 301.704 169.551,302.271 169.155,304.073 167.635 C 304.286 167.455,304.619 167.308,304.813 167.308 C 305.007 167.308,305.077 167.163,304.968 166.987 C 304.659 166.488,304.031 166.607,303.279 167.308 M209.228 167.689 C 209.782 168.244,210.577 168.285,210.577 167.760 C 210.577 167.482,210.243 167.308,209.712 167.308 C 209.043 167.308,208.933 167.394,209.228 167.689 M211.410 168.184 C 211.061 168.533,211.211 168.855,211.689 168.784 C 212.398 168.680,212.587 168.371,212.064 168.171 C 211.810 168.073,211.515 168.079,211.410 168.184 M213.462 169.231 C 214.089 169.636,214.744 169.636,214.744 169.231 C 214.744 169.054,214.347 168.912,213.862 168.915 C 213.175 168.919,213.087 168.989,213.462 169.231 M215.545 169.872 C 215.654 170.048,216.023 170.192,216.365 170.192 C 216.707 170.192,216.987 170.048,216.987 169.872 C 216.987 169.696,216.618 169.551,216.167 169.551 C 215.702 169.551,215.433 169.690,215.545 169.872 M217.628 170.479 C 217.628 170.636,217.845 170.848,218.109 170.949 C 218.402 171.062,218.590 170.950,218.590 170.663 C 218.590 170.404,218.373 170.192,218.109 170.192 C 217.845 170.192,217.628 170.321,217.628 170.479 M219.589 171.124 C 219.243 171.343,219.301 171.453,219.854 171.629 C 220.648 171.881,221.003 171.688,220.686 171.175 C 220.432 170.764,220.177 170.752,219.589 171.124 M221.955 172.115 C 221.846 172.292,221.973 172.436,222.238 172.436 C 222.502 172.436,222.808 172.292,222.917 172.115 C 223.026 171.939,222.898 171.795,222.634 171.795 C 222.370 171.795,222.064 171.939,221.955 172.115 M224.038 172.756 C 224.038 172.933,224.255 173.077,224.519 173.077 C 224.784 173.077,225.000 172.933,225.000 172.756 C 225.000 172.580,224.784 172.436,224.519 172.436 C 224.255 172.436,224.038 172.580,224.038 172.756 M226.282 173.360 C 226.282 173.516,226.571 173.719,226.923 173.811 C 227.340 173.920,227.564 173.821,227.564 173.528 C 227.564 173.280,227.276 173.077,226.923 173.077 C 226.571 173.077,226.282 173.204,226.282 173.360 M228.662 174.000 C 228.982 174.518,230.128 174.650,230.128 174.169 C 230.128 173.899,229.799 173.718,229.308 173.718 C 228.857 173.718,228.566 173.845,228.662 174.000 M231.410 175.005 C 231.410 175.377,233.302 175.310,233.537 174.930 C 233.622 174.792,233.178 174.679,232.551 174.679 C 231.924 174.679,231.410 174.826,231.410 175.005 M234.295 175.641 C 234.928 176.050,236.538 176.050,236.538 175.641 C 236.538 175.465,235.925 175.323,235.176 175.325 C 234.179 175.329,233.943 175.413,234.295 175.641 M237.500 176.282 C 237.500 176.458,238.005 176.603,238.622 176.603 C 239.239 176.603,239.744 176.458,239.744 176.282 C 239.744 176.106,239.239 175.962,238.622 175.962 C 238.005 175.962,237.500 176.106,237.500 176.282 M240.910 176.936 C 241.397 177.423,243.015 177.471,243.181 177.003 C 243.280 176.723,242.910 176.603,241.950 176.603 C 241.000 176.603,240.680 176.705,240.910 176.936 M280.938 176.910 C 280.824 177.093,280.247 177.244,279.655 177.244 C 278.399 177.244,277.564 177.513,277.564 177.919 C 277.564 178.311,280.884 178.282,281.280 177.886 C 281.455 177.711,281.998 177.535,282.486 177.494 C 284.058 177.364,284.105 176.729,282.549 176.649 C 281.776 176.609,281.051 176.726,280.938 176.910 M245.107 177.474 C 243.687 177.688,244.440 178.205,246.173 178.205 C 247.723 178.205,248.257 177.825,247.249 177.438 C 246.732 177.239,246.647 177.241,245.107 177.474 M248.397 178.526 C 248.397 178.709,249.359 178.846,250.641 178.846 C 251.923 178.846,252.885 178.709,252.885 178.526 C 252.885 178.342,251.923 178.205,250.641 178.205 C 249.359 178.205,248.397 178.342,248.397 178.526 M274.038 178.526 C 274.038 178.702,274.688 178.846,275.481 178.846 C 276.274 178.846,276.923 178.702,276.923 178.526 C 276.923 178.349,276.274 178.205,275.481 178.205 C 274.688 178.205,274.038 178.349,274.038 178.526 M254.487 179.167 C 254.487 179.372,257.479 179.487,262.821 179.487 C 268.162 179.487,271.154 179.372,271.154 179.167 C 271.154 178.961,268.162 178.846,262.821 178.846 C 257.479 178.846,254.487 178.961,254.487 179.167 " stroke="none" fill="#57c2e6" fill-rule="evenodd"></path><path id="path1" d="M149.439 133.875 C 149.748 133.955,150.252 133.955,150.561 133.875 C 150.869 133.794,150.617 133.728,150.000 133.728 C 149.383 133.728,149.131 133.794,149.439 133.875 M153.045 133.960 C 155.468 134.367,152.937 134.681,148.280 134.551 C 144.767 134.453,144.009 134.508,144.287 134.843 C 144.562 135.175,144.111 135.256,142.008 135.256 C 140.341 135.256,139.457 135.373,139.583 135.577 C 139.706 135.776,139.106 135.897,138.000 135.897 C 137.020 135.897,136.218 136.042,136.218 136.218 C 136.218 136.396,135.363 136.538,134.295 136.538 C 132.799 136.538,132.372 136.645,132.372 137.019 C 132.372 137.357,132.031 137.500,131.231 137.500 C 130.404 137.500,130.157 137.390,130.331 137.099 C 130.523 136.780,130.472 136.779,130.080 137.097 C 129.810 137.315,129.471 137.388,129.326 137.257 C 129.182 137.126,129.155 137.272,129.266 137.580 C 129.435 138.053,129.270 138.141,128.214 138.141 C 127.525 138.141,126.872 138.285,126.763 138.462 C 126.654 138.638,126.068 138.782,125.462 138.782 C 124.855 138.782,124.359 138.926,124.359 139.103 C 124.359 139.279,123.854 139.423,123.237 139.423 C 122.538 139.423,122.146 139.567,122.196 139.805 C 122.240 140.015,122.002 140.246,121.668 140.318 C 121.220 140.415,121.111 140.316,121.255 139.941 C 121.421 139.508,121.357 139.491,120.821 139.825 C 120.475 140.041,120.192 140.400,120.192 140.622 C 120.192 140.857,119.790 141.026,119.231 141.026 C 118.702 141.026,118.269 141.170,118.269 141.346 C 118.269 141.522,117.921 141.667,117.495 141.667 C 117.069 141.667,116.672 141.810,116.613 141.984 C 116.554 142.159,116.120 142.334,115.648 142.373 C 115.175 142.412,114.815 142.593,114.846 142.776 C 114.878 142.959,114.507 143.155,114.022 143.210 C 113.538 143.266,113.141 143.446,113.141 143.611 C 113.141 143.776,112.865 143.910,112.527 143.910 C 112.189 143.910,111.864 144.018,111.806 144.151 C 111.660 144.477,106.992 146.803,106.490 146.798 C 106.270 146.796,106.090 146.904,106.090 147.037 C 106.090 147.596,104.112 148.184,103.798 147.719 C 103.567 147.376,103.520 147.412,103.592 147.874 C 103.644 148.204,103.406 148.636,103.062 148.836 C 102.719 149.035,102.151 149.451,101.800 149.760 C 101.449 150.068,100.973 150.321,100.743 150.321 C 100.381 150.321,99.702 150.805,98.275 152.083 C 98.078 152.260,97.484 152.620,96.955 152.884 C 96.426 153.148,95.921 153.444,95.833 153.542 C 95.745 153.640,95.097 154.145,94.393 154.664 C 93.689 155.184,92.781 155.933,92.375 156.330 C 91.970 156.727,91.536 157.053,91.412 157.055 C 90.902 157.062,81.410 166.216,81.410 166.700 C 81.410 167.172,82.476 167.476,82.620 167.045 C 82.689 166.837,83.190 166.667,83.734 166.667 C 84.278 166.667,84.627 166.571,84.510 166.454 C 84.252 166.197,86.042 165.064,86.706 165.064 C 86.967 165.064,87.179 164.920,87.179 164.744 C 87.179 164.567,87.540 164.423,87.981 164.423 C 88.421 164.423,88.782 164.302,88.782 164.154 C 88.782 163.890,90.941 163.056,91.438 163.128 C 91.576 163.148,91.911 162.942,92.182 162.672 C 92.452 162.401,92.952 162.179,93.292 162.179 C 93.632 162.179,93.910 162.035,93.910 161.859 C 93.910 161.683,94.271 161.538,94.712 161.538 C 95.152 161.538,95.513 161.394,95.513 161.218 C 95.513 161.042,95.921 160.897,96.421 160.897 C 96.920 160.897,97.432 160.795,97.557 160.669 C 97.912 160.315,100.735 159.295,101.362 159.295 C 101.671 159.295,101.923 159.132,101.923 158.933 C 101.923 158.692,102.433 158.624,103.446 158.731 C 104.283 158.819,104.788 158.826,104.567 158.746 C 103.763 158.454,104.196 158.013,105.288 158.013 C 105.905 158.013,106.410 157.869,106.410 157.692 C 106.410 157.516,106.996 157.372,107.711 157.372 C 108.497 157.372,108.934 157.245,108.814 157.051 C 108.610 156.721,109.017 156.611,110.044 156.719 C 110.367 156.753,110.895 156.542,111.217 156.251 C 111.663 155.847,112.171 155.765,113.353 155.905 C 114.206 156.006,114.724 156.005,114.503 155.902 C 113.655 155.507,114.164 155.128,115.545 155.128 C 116.338 155.128,116.987 154.984,116.987 154.808 C 116.987 154.631,117.679 154.487,118.526 154.487 C 119.372 154.487,120.201 154.351,120.369 154.185 C 120.536 154.018,121.704 153.838,122.963 153.784 C 124.223 153.730,125.190 153.582,125.113 153.455 C 124.850 153.019,126.640 152.806,129.425 152.941 C 130.958 153.016,131.959 153.023,131.651 152.957 C 129.208 152.437,132.666 152.244,144.425 152.244 C 155.738 152.244,157.735 152.312,157.588 152.693 C 157.446 153.063,157.837 153.113,159.790 152.972 C 161.658 152.838,162.335 152.913,162.962 153.324 C 163.457 153.648,164.433 153.846,165.534 153.846 C 166.739 153.846,167.308 153.975,167.307 154.247 C 167.307 154.529,167.782 154.615,168.910 154.536 C 169.926 154.466,170.513 154.554,170.513 154.777 C 170.513 154.986,171.177 155.128,172.155 155.128 C 173.644 155.128,173.756 155.177,173.357 155.657 C 172.956 156.141,173.049 156.167,174.442 155.958 C 175.672 155.773,176.003 155.826,176.158 156.230 C 176.280 156.548,176.748 156.731,177.438 156.731 C 178.036 156.731,178.526 156.875,178.526 157.051 C 178.526 157.228,178.958 157.372,179.487 157.372 C 180.016 157.372,180.449 157.516,180.449 157.692 C 180.449 157.869,181.041 158.013,181.765 158.013 C 182.826 158.013,183.044 158.110,182.890 158.513 C 182.726 158.938,182.912 158.981,184.137 158.797 C 185.343 158.616,185.577 158.666,185.577 159.104 C 185.577 159.494,185.770 159.579,186.332 159.438 C 186.806 159.319,187.275 159.436,187.591 159.752 C 187.868 160.030,188.538 160.256,189.080 160.256 C 189.621 160.256,190.064 160.401,190.064 160.577 C 190.064 160.753,190.497 160.897,191.026 160.897 C 191.554 160.897,191.987 161.042,191.987 161.218 C 191.987 161.394,192.492 161.538,193.109 161.538 C 193.892 161.538,194.231 161.683,194.231 162.019 C 194.231 162.340,194.551 162.500,195.192 162.500 C 195.721 162.500,196.154 162.644,196.154 162.821 C 196.154 162.997,196.659 163.141,197.276 163.141 C 197.893 163.141,198.397 163.285,198.397 163.462 C 198.397 163.638,198.839 163.782,199.378 163.782 C 199.950 163.782,200.276 163.916,200.160 164.103 C 200.042 164.294,200.435 164.423,201.137 164.423 C 202.089 164.423,202.274 164.522,202.113 164.942 C 201.958 165.347,202.063 165.423,202.590 165.285 C 203.521 165.042,204.382 165.371,203.793 165.745 C 203.521 165.917,203.860 166.018,204.728 166.021 C 205.477 166.023,206.090 166.170,206.090 166.346 C 206.090 166.522,206.595 166.667,207.212 166.667 C 207.829 166.667,208.333 166.811,208.333 166.987 C 208.333 167.163,208.838 167.308,209.455 167.308 C 210.259 167.308,210.577 167.450,210.577 167.809 C 210.577 168.094,210.819 168.285,211.138 168.252 C 212.141 168.150,212.542 168.263,212.340 168.590 C 212.220 168.783,212.657 168.910,213.443 168.910 C 214.158 168.910,214.744 169.054,214.744 169.231 C 214.744 169.407,215.248 169.551,215.865 169.551 C 216.482 169.551,216.987 169.696,216.987 169.872 C 216.987 170.048,217.348 170.192,217.788 170.192 C 218.314 170.192,218.590 170.371,218.590 170.713 C 218.590 171.120,218.799 171.192,219.541 171.044 C 220.229 170.906,220.573 170.998,220.784 171.374 C 220.963 171.694,221.463 171.884,222.082 171.866 C 222.635 171.850,223.005 171.972,222.904 172.137 C 222.802 172.301,223.232 172.436,223.859 172.436 C 224.487 172.436,225.000 172.580,225.000 172.756 C 225.000 172.933,225.577 173.077,226.282 173.077 C 227.097 173.077,227.564 173.224,227.564 173.479 C 227.564 173.933,229.417 174.857,229.719 174.554 C 229.827 174.447,229.683 174.359,229.399 174.359 C 229.116 174.359,228.795 174.215,228.686 174.038 C 228.574 173.857,228.843 173.718,229.308 173.718 C 229.823 173.718,230.128 173.897,230.128 174.199 C 230.128 174.706,230.480 174.778,232.488 174.683 C 233.307 174.645,233.653 174.743,233.510 174.973 C 233.368 175.204,233.800 175.321,234.799 175.321 C 235.940 175.321,236.448 175.487,236.902 176.011 C 237.231 176.390,237.500 176.534,237.500 176.331 C 237.500 176.122,237.988 175.962,238.622 175.962 C 239.239 175.962,239.744 176.106,239.744 176.282 C 239.744 176.458,240.552 176.603,241.541 176.603 C 243.078 176.603,243.308 176.679,243.135 177.130 C 242.956 177.599,243.168 177.636,245.014 177.464 C 246.610 177.315,247.205 177.379,247.563 177.737 C 247.891 178.065,248.758 178.205,250.458 178.205 C 251.862 178.205,252.885 178.340,252.885 178.526 C 252.885 178.733,256.624 178.846,263.462 178.846 C 270.299 178.846,274.038 178.733,274.038 178.526 C 274.038 178.349,274.770 178.205,275.664 178.205 C 276.681 178.205,277.469 178.025,277.770 177.724 C 278.035 177.460,278.809 177.244,279.491 177.244 C 280.173 177.244,280.827 177.089,280.943 176.901 C 281.060 176.712,281.681 176.582,282.324 176.611 C 284.056 176.690,284.353 176.636,284.135 176.282 C 284.017 176.092,284.389 175.962,285.051 175.962 C 285.663 175.962,286.213 175.825,286.271 175.657 C 286.330 175.490,286.983 175.318,287.721 175.275 C 288.460 175.232,289.000 175.093,288.920 174.965 C 288.841 174.836,289.209 174.637,289.737 174.521 C 290.265 174.405,290.780 174.177,290.881 174.014 C 290.981 173.851,291.416 173.718,291.846 173.718 C 292.276 173.718,292.628 173.574,292.628 173.397 C 292.628 173.221,292.917 173.077,293.269 173.077 C 293.622 173.077,293.910 172.933,293.910 172.756 C 293.910 172.580,294.129 172.436,294.397 172.436 C 294.665 172.436,295.456 172.075,296.154 171.635 C 296.852 171.194,297.642 170.833,297.910 170.833 C 298.178 170.833,298.397 170.706,298.397 170.549 C 298.397 170.393,298.916 169.997,299.550 169.668 C 300.184 169.339,300.978 168.928,301.313 168.754 C 301.649 168.580,301.923 168.328,301.923 168.193 C 301.923 168.059,302.073 167.949,302.257 167.949 C 302.441 167.949,302.909 167.653,303.297 167.291 C 303.685 166.929,304.257 166.699,304.566 166.780 C 304.876 166.861,305.050 166.800,304.954 166.645 C 304.788 166.376,306.657 164.452,307.103 164.432 C 307.220 164.427,308.115 163.630,309.093 162.660 C 310.070 161.691,311.044 160.897,311.257 160.897 C 311.471 160.897,311.560 160.812,311.456 160.708 C 311.352 160.604,311.760 160.039,312.364 159.453 C 312.968 158.866,313.462 158.158,313.462 157.879 C 313.462 157.600,313.585 157.372,313.736 157.372 C 313.886 157.372,314.420 156.723,314.921 155.929 C 315.423 155.136,315.948 154.487,316.090 154.487 C 316.231 154.487,316.346 154.271,316.346 154.006 C 316.346 153.742,316.490 153.526,316.667 153.526 C 316.843 153.526,316.987 153.237,316.987 152.885 C 316.987 152.532,317.121 152.244,317.284 152.244 C 317.626 152.244,318.590 150.433,318.590 149.791 C 318.590 149.553,318.734 149.359,318.910 149.359 C 319.316 149.359,319.331 148.497,318.930 148.249 C 318.765 148.147,318.057 148.607,317.357 149.272 C 314.329 152.147,313.864 152.564,313.678 152.564 C 313.570 152.564,312.478 153.213,311.252 154.006 C 310.026 154.800,308.867 155.449,308.678 155.449 C 308.488 155.449,308.333 155.593,308.333 155.769 C 308.333 155.946,308.117 156.090,307.853 156.090 C 307.588 156.090,307.372 156.202,307.372 156.338 C 307.372 156.475,306.724 156.872,305.933 157.220 C 305.141 157.568,304.492 157.961,304.490 158.093 C 304.489 158.225,304.127 158.333,303.686 158.333 C 303.245 158.333,302.885 158.478,302.885 158.654 C 302.885 158.830,302.594 158.974,302.239 158.974 C 301.884 158.974,301.343 159.102,301.037 159.257 C 298.987 160.300,296.240 161.207,295.112 161.213 C 294.627 161.216,294.231 161.380,294.231 161.577 C 294.231 161.819,293.579 161.889,292.229 161.791 C 291.129 161.712,290.407 161.706,290.627 161.779 C 291.606 162.106,290.874 162.500,289.290 162.500 C 288.232 162.500,287.504 162.649,287.426 162.882 C 287.340 163.141,286.267 163.269,284.064 163.281 C 282.285 163.291,280.890 163.398,280.966 163.520 C 281.217 163.927,278.165 164.188,275.058 164.025 C 273.193 163.928,271.935 163.722,271.862 163.503 C 271.783 163.265,270.602 163.141,268.422 163.141 C 266.554 163.141,265.015 163.001,264.904 162.821 C 264.795 162.644,263.849 162.500,262.802 162.500 C 261.073 162.500,260.288 162.122,261.298 161.775 C 261.518 161.699,260.653 161.700,259.375 161.777 C 257.576 161.886,257.051 161.820,257.051 161.488 C 257.051 161.191,256.599 161.058,255.597 161.058 C 254.798 161.058,254.040 160.900,253.915 160.707 C 253.789 160.514,253.109 160.336,252.404 160.313 C 251.700 160.289,250.979 160.087,250.802 159.863 C 250.605 159.613,249.942 159.494,249.087 159.555 C 248.164 159.622,247.765 159.540,247.904 159.315 C 248.040 159.096,247.650 158.974,246.814 158.974 C 245.552 158.974,245.098 158.583,245.913 158.198 C 246.134 158.094,245.905 158.088,245.405 158.184 C 244.329 158.391,243.183 158.091,243.444 157.669 C 243.545 157.506,243.123 157.372,242.506 157.372 C 241.889 157.372,241.295 157.228,241.186 157.051 C 241.077 156.875,240.564 156.731,240.045 156.731 C 239.527 156.731,239.103 156.587,239.103 156.410 C 239.103 156.234,238.654 156.090,238.107 156.090 C 237.376 156.090,237.158 155.968,237.286 155.632 C 237.425 155.271,237.229 155.212,236.359 155.354 C 235.466 155.499,235.256 155.429,235.256 154.990 C 235.256 154.665,235.031 154.470,234.696 154.504 C 233.692 154.606,233.292 154.494,233.494 154.167 C 233.613 153.973,233.176 153.846,232.391 153.846 C 231.675 153.846,231.090 153.702,231.090 153.526 C 231.090 153.349,230.570 153.205,229.934 153.205 C 229.002 153.205,228.816 153.105,228.976 152.689 C 229.137 152.269,229.020 152.211,228.354 152.378 C 227.253 152.654,226.499 152.186,227.567 151.889 C 228.173 151.720,227.998 151.659,226.843 151.635 C 226.006 151.617,225.321 151.458,225.321 151.282 C 225.321 151.106,224.888 150.962,224.359 150.962 C 223.830 150.962,223.397 150.817,223.397 150.641 C 223.397 150.465,222.893 150.321,222.276 150.321 C 221.333 150.321,221.150 150.205,221.129 149.599 C 221.115 149.203,221.030 149.058,220.942 149.279 C 220.756 149.738,219.551 149.830,219.551 149.386 C 219.551 149.224,219.732 149.019,219.952 148.930 C 220.172 148.841,219.812 148.757,219.151 148.743 C 218.490 148.729,217.949 148.574,217.949 148.397 C 217.949 148.221,217.516 148.077,216.987 148.077 C 216.458 148.077,216.026 147.933,216.026 147.756 C 216.026 147.580,215.593 147.436,215.064 147.436 C 214.535 147.436,214.103 147.292,214.103 147.115 C 214.103 146.939,213.562 146.790,212.901 146.785 C 211.774 146.775,211.738 146.745,212.321 146.304 C 212.905 145.862,212.872 145.833,211.787 145.833 C 211.151 145.833,210.574 145.665,210.505 145.459 C 210.436 145.251,209.852 145.104,209.197 145.128 C 208.546 145.153,208.013 145.068,208.013 144.939 C 208.013 144.811,207.709 144.516,207.338 144.284 C 206.967 144.053,206.759 144.018,206.876 144.207 C 207.268 144.841,206.333 144.560,205.727 143.861 C 205.398 143.482,205.128 143.337,205.128 143.541 C 205.128 143.744,204.824 143.910,204.453 143.910 C 203.991 143.910,203.835 143.762,203.958 143.440 C 204.057 143.181,203.978 142.870,203.783 142.749 C 203.567 142.616,203.517 142.675,203.655 142.899 C 203.805 143.142,203.602 143.269,203.064 143.269 C 202.548 143.269,202.244 143.091,202.244 142.788 C 202.244 142.451,201.903 142.308,201.103 142.308 C 200.424 142.308,200.042 142.178,200.160 141.987 C 200.280 141.794,199.843 141.667,199.057 141.667 C 198.342 141.667,197.756 141.522,197.756 141.346 C 197.756 141.170,197.324 141.026,196.795 141.026 C 195.748 141.026,195.493 140.537,196.394 140.258 C 196.703 140.162,196.265 140.150,195.421 140.230 C 194.262 140.340,193.842 140.259,193.704 139.899 C 193.585 139.589,193.079 139.423,192.254 139.423 C 191.492 139.423,191.067 139.296,191.186 139.103 C 191.308 138.905,190.768 138.782,189.781 138.782 C 188.900 138.782,188.090 138.638,187.981 138.462 C 187.872 138.285,187.214 138.141,186.520 138.141 C 185.654 138.141,185.256 138.001,185.256 137.695 C 185.256 137.117,184.253 136.729,183.965 137.194 C 183.666 137.678,181.869 137.448,181.971 136.939 C 182.027 136.657,181.528 136.538,180.288 136.538 C 179.319 136.538,178.526 136.394,178.526 136.218 C 178.526 136.042,177.741 135.897,176.782 135.897 C 175.823 135.897,174.949 135.753,174.840 135.577 C 174.731 135.401,173.553 135.256,172.222 135.256 C 170.393 135.256,169.841 135.157,169.960 134.848 C 170.083 134.526,169.271 134.464,166.148 134.558 C 162.516 134.667,160.740 134.296,162.901 133.880 C 163.297 133.804,160.954 133.742,157.692 133.743 C 154.431 133.744,152.340 133.842,153.045 133.960 " stroke="none" fill="#127ea9" fill-rule="evenodd"></path></g></svg>